<?xml version="1.0" encoding="UTF-8" standalone="no"?>
<!-- Created with Inkscape (http://www.inkscape.org/) -->

<svg
   xmlns:dc="http://purl.org/dc/elements/1.1/"
   xmlns:cc="http://creativecommons.org/ns#"
   xmlns:rdf="http://www.w3.org/1999/02/22-rdf-syntax-ns#"
   xmlns:svg="http://www.w3.org/2000/svg"
   xmlns="http://www.w3.org/2000/svg"
   xmlns:sodipodi="http://sodipodi.sourceforge.net/DTD/sodipodi-0.dtd"
   xmlns:inkscape="http://www.inkscape.org/namespaces/inkscape"
   width="90"
   height="90"
   viewBox="0 0 23.812499 23.8125"
   version="1.1"
   id="wifi-icon"
   sodipodi:docname="wifi-2.svg">
  <defs
     id="defs2" />
  <sodipodi:namedview
     id="base"
     pagecolor="#ffffff"
     bordercolor="#666666"
     borderopacity="1.0"
     inkscape:pageopacity="0.0"
     inkscape:pageshadow="2"
     inkscape:zoom="11.313709"
     inkscape:cx="14.237455"
     inkscape:cy="39.16248"
     inkscape:document-units="mm"
     inkscape:current-layer="layer1"
     showgrid="false"
     units="px"
     inkscape:window-width="2736"
     inkscape:window-height="1699"
     inkscape:window-x="2719"
     inkscape:window-y="-13"
     inkscape:window-maximized="1" />
  <metadata
     id="metadata5">
    <rdf:RDF>
      <cc:Work
         rdf:about="">
        <dc:format>image/svg+xml</dc:format>
        <dc:type
           rdf:resource="http://purl.org/dc/dcmitype/StillImage" />
        <dc:title></dc:title>
      </cc:Work>
    </rdf:RDF>
  </metadata>
  <g
     inkscape:label="Laag 1"
     inkscape:groupmode="layer"
     id="layer1"
     transform="translate(0,-273.18744)">
    <circle
       style="opacity:1;fill:#000000;fill-opacity:1"
       id="dot"
       cx="11.85625"
       cy="293.69302"
       r="2.5958333" />
    <path
       style="opacity:1;fill:#000000;fill-opacity:1"
       d="m 6.8096415,287.92614 c 3.5043285,-1.76701 6.7740445,-1.53485 9.8741385,0 0.656046,0.32481 1.243753,0.85528 1.243753,1.91766 v 0.11693 c 0,1.06239 -0.620934,2.37211 -1.243753,1.91767 -3.983364,-2.90646 -7.0547884,-1.98261 -9.8741385,0 -0.6269133,0.44085 -1.2437531,-0.85528 -1.2437531,-1.91767 v -0.11693 c 0,-1.06238 0.5888463,-1.58743 1.2437531,-1.91766 z"
       id="bar1"
       inkscape:connector-curvature="0"
       sodipodi:nodetypes="sssssssss" />
    <path
       style="opacity:1;fill:#000000;fill-opacity:1"
       d="m 5.0913733,283.64733 c 4.8103547,-1.76701 9.2986597,-1.53485 13.5541277,0 0.900547,0.32481 1.707287,0.85528 1.707287,1.91766 v 0.11693 c 0,1.06239 -0.85235,2.37211 -1.707287,1.91767 -5.467924,-2.90646 -9.6840346,-1.98261 -13.5541277,0 -0.8605575,0.44085 -1.7072872,-0.85528 -1.7072872,-1.91767 v -0.11693 c 0,-1.06238 0.8083033,-1.58743 1.7072872,-1.91766 z"
       id="bar2"
       inkscape:connector-curvature="0"
       sodipodi:nodetypes="sssssssss" />
    <path
       style="opacity:1;fill:#000000;fill-opacity:1"
       d="m 3.1135581,278.94654 c 6.1893075,-1.76701 11.9642479,-1.53485 17.4396029,0 1.1587,0.32481 2.196703,0.85528 2.196703,1.91766 v 0.11693 c 0,1.06239 -1.096687,2.37211 -2.196703,1.91767 -7.035378,-2.90646 -12.4600961,-1.98261 -17.4396029,0 -1.1072478,0.44085 -2.19670384,-0.85528 -2.19670384,-1.91767 v -0.11693 c 0,-1.06238 1.04001414,-1.58743 2.19670384,-1.91766 z"
       id="bar3"
       inkscape:connector-curvature="0"
       sodipodi:nodetypes="sssssssss" />
  </g>
</svg>
